# xmcd
#
# Track frame offsets:
#	150
#	22471
#	41783
#	58536
#	76667
#	97751
#	113013
#	139816
#	163244
#
# Disc length: 2382 seconds
#
# Revision: 1
# Processed by: cddbd v1.5.2PL0 Copyright (c) Steve Scherf et al.
# Submitted via: EasyCDDAExtractor 9.0.0.1
#
DISCID=71094c09
DTITLE=Colorado Band - Colrado Band - Live Warszawa 2007
DYEAR=2007
DGENRE=country
TTITLE0=Taka ma³a stacja
TTITLE1=Nadzieja
TTITLE2=Wracam do £odzi
TTITLE3=W tak¹ noc jak ta
TTITLE4=¯yj jak chcesz
TTITLE5=Koszykowy romans
TTITLE6=O co biega co jest grane
TTITLE7=Weekend za miastem
TTITLE8=Gram do wieczora
EXTD=
EXTT0=
EXTT1=
EXTT2=
EXTT3=
EXTT4=
EXTT5=
EXTT6=
EXTT7=
EXTT8=
PLAYORDER=
